solid 
facet normal -2.323642e-01 -9.153828e-01 3.287570e-01
 outer loop
  vertex 8.285628e+01 5.910368e+00 1.450097e+02
  vertex 4.920670e+01 1.996427e+01 1.603577e+02
  vertex 5.796521e+01 8.119298e+00 1.335673e+02
 endloop
endfacet
facet normal 6.460086e-01 6.982197e-01 -3.084836e-01
 outer loop
  vertex 1.290294e+01 7.014127e+01 1.438973e+02
  vertex 8.300049e+01 1.863786e+01 1.741190e+02
  vertex 8.285628e+01 5.910368e+00 1.450097e+02
 endloop
endfacet
facet normal 9.748658e-02 -7.117643e-01 6.956205e-01
 outer loop
  vertex 8.300049e+01 1.863786e+01 1.741190e+02
  vertex 1.125887e+02 3.980496e+01 1.916308e+02
  vertex 8.334230e+01 4.071763e+01 1.966633e+02
 endloop
endfacet
facet normal -4.487106e-01 6.418601e-01 -6.218315e-01
 outer loop
  vertex 1.166874e+02 6.879704e+01 2.015855e+02
  vertex 8.300049e+01 1.863786e+01 1.741190e+02
  vertex 8.334230e+01 4.071763e+01 1.966633e+02
 endloop
endfacet
facet normal -3.110252e-02 -9.936993e-01 1.076765e-01
 outer loop
  vertex 2.965770e+01 1.310464e+02 1.678642e+02
  vertex 1.691964e+01 1.282142e+02 1.380475e+02
  vertex 1.569128e+02 1.245084e+02 1.442851e+02
 endloop
endfacet
facet normal -9.340607e-01 3.697024e-02 3.551954e-01
 outer loop
  vertex 2.365875e+01 7.092667e+01 1.763748e+02
  vertex 2.402997e+01 1.010075e+02 1.742200e+02
  vertex 1.140381e+01 9.894907e+01 1.412312e+02
 endloop
endfacet
facet normal 9.334985e-01 1.542259e-02 -3.582495e-01
 outer loop
  vertex 1.290294e+01 7.014127e+01 1.438973e+02
  vertex 1.140381e+01 9.894907e+01 1.412312e+02
  vertex 2.402997e+01 1.010075e+02 1.742200e+02
 endloop
endfacet
facet normal -9.489545e-01 -2.025159e-02 3.147622e-01
 outer loop
  vertex 1.290294e+01 7.014127e+01 1.438973e+02
  vertex 2.365875e+01 7.092667e+01 1.763748e+02
  vertex 1.140381e+01 9.894907e+01 1.412312e+02
 endloop
endfacet
facet normal -5.721920e-01 6.547300e-01 -4.938876e-01
 outer loop
  vertex 8.300049e+01 1.863786e+01 1.741190e+02
  vertex 1.166874e+02 6.879704e+01 2.015855e+02
  vertex 1.581860e+02 6.563035e+01 1.493094e+02
 endloop
endfacet
facet normal -4.265505e-01 2.191805e-01 -8.775047e-01
 outer loop
  vertex 1.470984e+02 3.875226e+01 1.479855e+02
  vertex 8.300049e+01 1.863786e+01 1.741190e+02
  vertex 1.581860e+02 6.563035e+01 1.493094e+02
 endloop
endfacet
facet normal -5.631457e-01 -8.080148e-01 1.731442e-01
 outer loop
  vertex 4.920670e+01 1.996427e+01 1.603577e+02
  vertex 3.590635e+01 2.114016e+01 1.225863e+02
  vertex 5.796521e+01 8.119298e+00 1.335673e+02
 endloop
endfacet
facet normal -6.945922e-01 -6.838721e-01 2.232948e-01
 outer loop
  vertex 2.148287e+01 4.268891e+01 1.437160e+02
  vertex 3.590635e+01 2.114016e+01 1.225863e+02
  vertex 4.920670e+01 1.996427e+01 1.603577e+02
 endloop
endfacet
facet normal 2.335354e-01 2.388105e-01 9.425661e-01
 outer loop
  vertex 8.506447e+01 1.328385e+02 2.004064e+02
  vertex 1.192140e+02 1.003214e+02 2.001839e+02
  vertex 1.162444e+02 1.310739e+02 1.931282e+02
 endloop
endfacet
facet normal 2.041931e-01 2.078991e-01 9.565998e-01
 outer loop
  vertex 8.506447e+01 1.328385e+02 2.004064e+02
  vertex 8.445713e+01 1.017785e+02 2.072863e+02
  vertex 1.192140e+02 1.003214e+02 2.001839e+02
 endloop
endfacet
facet normal -9.832782e-01 1.671840e-01 -7.220477e-02
 outer loop
  vertex 2.240539e+01 1.504020e+02 7.026129e+01
  vertex 1.762708e+01 1.221915e+02 7.001294e+01
  vertex 1.545593e+01 1.247281e+02 1.054525e+02
 endloop
endfacet
facet normal -9.637933e-01 2.666176e-01 4.185526e-03
 outer loop
  vertex 2.240539e+01 1.504020e+02 7.026129e+01
  vertex 1.545593e+01 1.247281e+02 1.054525e+02
  vertex 2.301650e+01 1.520375e+02 1.068021e+02
 endloop
endfacet
facet normal -2.128102e-02 -9.973145e-01 7.007715e-02
 outer loop
  vertex 1.566980e+02 1.196549e+02 7.614481e+01
  vertex 1.545593e+01 1.247281e+02 1.054525e+02
  vertex 1.762708e+01 1.221915e+02 7.001294e+01
 endloop
endfacet
facet normal 8.476640e-01 -3.684758e-01 3.816954e-01
 outer loop
  vertex 1.354342e+02 3.910069e+01 1.742256e+02
  vertex 1.470984e+02 3.875226e+01 1.479855e+02
  vertex 1.581860e+02 6.563035e+01 1.493094e+02
 endloop
endfacet
facet normal -2.706817e-01 -7.595069e-01 5.915072e-01
 outer loop
  vertex 4.920670e+01 1.996427e+01 1.603577e+02
  vertex 8.300049e+01 1.863786e+01 1.741190e+02
  vertex 5.506167e+01 4.160705e+01 1.908268e+02
 endloop
endfacet
facet normal -4.950517e-01 -6.606101e-01 5.643740e-01
 outer loop
  vertex 3.222078e+01 4.233468e+01 1.716431e+02
  vertex 4.920670e+01 1.996427e+01 1.603577e+02
  vertex 5.506167e+01 4.160705e+01 1.908268e+02
 endloop
endfacet
facet normal -8.638665e-01 3.778018e-01 3.331674e-01
 outer loop
  vertex 2.728814e+01 1.556482e+02 1.338225e+02
  vertex 1.691964e+01 1.282142e+02 1.380475e+02
  vertex 2.965770e+01 1.310464e+02 1.678642e+02
 endloop
endfacet
facet normal -8.452966e-01 4.033847e-01 3.503634e-01
 outer loop
  vertex 2.728814e+01 1.556482e+02 1.338225e+02
  vertex 2.965770e+01 1.310464e+02 1.678642e+02
  vertex 3.908597e+01 1.587519e+02 1.587130e+02
 endloop
endfacet
facet normal -5.593641e-01 -8.210225e-01 -1.141658e-01
 outer loop
  vertex 4.041956e+01 2.258625e+01 9.007394e+01
  vertex 5.956560e+01 7.972811e+00 1.013588e+02
  vertex 3.590635e+01 2.114016e+01 1.225863e+02
 endloop
endfacet
facet normal -7.805021e-01 -6.102941e-01 -1.354902e-01
 outer loop
  vertex 4.041956e+01 2.258625e+01 9.007394e+01
  vertex 3.590635e+01 2.114016e+01 1.225863e+02
  vertex 2.051340e+01 4.273838e+01 1.139729e+02
 endloop
endfacet
facet normal -2.446562e-02 3.749921e-01 9.267051e-01
 outer loop
  vertex 4.041956e+01 2.258625e+01 9.007394e+01
  vertex 1.299579e+02 1.999806e+01 9.348512e+01
  vertex 1.460137e+02 4.072108e+01 8.552342e+01
 endloop
endfacet
facet normal 2.604842e-02 -3.760388e-01 -9.262377e-01
 outer loop
  vertex 2.650458e+01 4.347452e+01 8.104463e+01
  vertex 1.460137e+02 4.072108e+01 8.552342e+01
  vertex 1.299579e+02 1.999806e+01 9.348512e+01
 endloop
endfacet
facet normal -2.581548e-02 3.821117e-01 9.237555e-01
 outer loop
  vertex 2.650458e+01 4.347452e+01 8.104463e+01
  vertex 4.041956e+01 2.258625e+01 9.007394e+01
  vertex 1.460137e+02 4.072108e+01 8.552342e+01
 endloop
endfacet
facet normal 2.410527e-02 -3.830949e-01 -9.233944e-01
 outer loop
  vertex 2.650458e+01 4.347452e+01 8.104463e+01
  vertex 1.299579e+02 1.999806e+01 9.348512e+01
  vertex 4.041956e+01 2.258625e+01 9.007394e+01
 endloop
endfacet
facet normal 9.827367e-01 -1.849981e-01 2.074904e-03
 outer loop
  vertex 1.099298e+01 9.636685e+01 1.055858e+02
  vertex 1.691964e+01 1.282142e+02 1.380475e+02
  vertex 1.140381e+01 9.894907e+01 1.412312e+02
 endloop
endfacet
facet normal -9.819353e-01 1.876859e-01 2.402087e-02
 outer loop
  vertex 1.545593e+01 1.247281e+02 1.054525e+02
  vertex 1.140381e+01 9.894907e+01 1.412312e+02
  vertex 1.691964e+01 1.282142e+02 1.380475e+02
 endloop
endfacet
facet normal -9.878439e-01 1.554490e-01 1.245543e-04
 outer loop
  vertex 1.545593e+01 1.247281e+02 1.054525e+02
  vertex 1.099298e+01 9.636685e+01 1.055858e+02
  vertex 1.140381e+01 9.894907e+01 1.412312e+02
 endloop
endfacet
facet normal 9.874447e-01 -1.555159e-01 -2.770898e-02
 outer loop
  vertex 1.545593e+01 1.247281e+02 1.054525e+02
  vertex 1.691964e+01 1.282142e+02 1.380475e+02
  vertex 1.099298e+01 9.636685e+01 1.055858e+02
 endloop
endfacet
facet normal -2.707788e-01 -9.625988e-01 -9.076608e-03
 outer loop
  vertex 5.956560e+01 7.972811e+00 1.013588e+02
  vertex 8.287040e+01 1.296100e+00 1.141993e+02
  vertex 5.796521e+01 8.119298e+00 1.335673e+02
 endloop
endfacet
facet normal -5.004674e-01 -8.655023e-01 -2.093110e-02
 outer loop
  vertex 5.956560e+01 7.972811e+00 1.013588e+02
  vertex 5.796521e+01 8.119298e+00 1.335673e+02
  vertex 3.590635e+01 2.114016e+01 1.225863e+02
 endloop
endfacet
facet normal -8.854051e-01 -3.208042e-01 3.363665e-01
 outer loop
  vertex 2.365875e+01 7.092667e+01 1.763748e+02
  vertex 2.148287e+01 4.268891e+01 1.437160e+02
  vertex 3.222078e+01 4.233468e+01 1.716431e+02
 endloop
endfacet
facet normal -9.076433e-01 -2.857050e-01 3.075003e-01
 outer loop
  vertex 2.365875e+01 7.092667e+01 1.763748e+02
  vertex 1.290294e+01 7.014127e+01 1.438973e+02
  vertex 2.148287e+01 4.268891e+01 1.437160e+02
 endloop
endfacet
facet normal 4.229305e-02 2.751995e-01 -9.604564e-01
 outer loop
  vertex 1.520108e+02 1.477619e+02 7.632953e+01
  vertex 4.032696e+01 1.709766e+02 7.806330e+01
  vertex 1.351848e+02 1.698836e+02 8.192713e+01
 endloop
endfacet
facet normal -1.955709e-01 -8.981987e-01 3.936891e-01
 outer loop
  vertex 8.300049e+01 1.863786e+01 1.741190e+02
  vertex 4.920670e+01 1.996427e+01 1.603577e+02
  vertex 8.285628e+01 5.910368e+00 1.450097e+02
 endloop
endfacet
facet normal -8.850960e-01 -4.329664e-01 -1.707196e-01
 outer loop
  vertex 2.650458e+01 4.347452e+01 8.104463e+01
  vertex 2.051340e+01 4.273838e+01 1.139729e+02
  vertex 1.635777e+01 6.707954e+01 7.378548e+01
 endloop
endfacet
facet normal -9.415870e-01 -3.222507e-01 -9.781845e-02
 outer loop
  vertex 1.215311e+01 6.891972e+01 1.081968e+02
  vertex 1.635777e+01 6.707954e+01 7.378548e+01
  vertex 2.051340e+01 4.273838e+01 1.139729e+02
 endloop
endfacet
facet normal -7.893053e-01 -5.936204e-01 -1.568823e-01
 outer loop
  vertex 4.041956e+01 2.258625e+01 9.007394e+01
  vertex 2.051340e+01 4.273838e+01 1.139729e+02
  vertex 2.650458e+01 4.347452e+01 8.104463e+01
 endloop
endfacet
facet normal 8.421386e-01 5.362005e-01 -5.737289e-02
 outer loop
  vertex 1.215311e+01 6.891972e+01 1.081968e+02
  vertex 4.041956e+01 2.258625e+01 9.007394e+01
  vertex 2.650458e+01 4.347452e+01 8.104463e+01
 endloop
endfacet
facet normal 8.434110e-01 3.577529e-01 4.008375e-01
 outer loop
  vertex 1.215311e+01 6.891972e+01 1.081968e+02
  vertex 2.051340e+01 4.273838e+01 1.139729e+02
  vertex 4.041956e+01 2.258625e+01 9.007394e+01
 endloop
endfacet
facet normal 2.161079e-01 -7.837727e-01 5.822351e-01
 outer loop
  vertex 1.125887e+02 3.980496e+01 1.916308e+02
  vertex 8.300049e+01 1.863786e+01 1.741190e+02
  vertex 1.183524e+02 1.782837e+01 1.599078e+02
 endloop
endfacet
facet normal 9.159464e-01 -3.826749e-01 -1.208392e-01
 outer loop
  vertex 1.596041e+02 6.434292e+01 1.137309e+02
  vertex 1.495711e+02 3.869350e+01 1.189089e+02
  vertex 1.460137e+02 4.072108e+01 8.552342e+01
 endloop
endfacet
facet normal 7.619818e-01 -6.364128e-01 -1.198435e-01
 outer loop
  vertex 1.299579e+02 1.999806e+01 9.348512e+01
  vertex 1.460137e+02 4.072108e+01 8.552342e+01
  vertex 1.495711e+02 3.869350e+01 1.189089e+02
 endloop
endfacet
facet normal -8.049399e-01 5.845724e-01 -1.017192e-01
 outer loop
  vertex 1.299579e+02 1.999806e+01 9.348512e+01
  vertex 1.596041e+02 6.434292e+01 1.137309e+02
  vertex 1.460137e+02 4.072108e+01 8.552342e+01
 endloop
endfacet
facet normal -8.438771e-01 4.018573e-01 3.555025e-01
 outer loop
  vertex 1.299579e+02 1.999806e+01 9.348512e+01
  vertex 1.495711e+02 3.869350e+01 1.189089e+02
  vertex 1.596041e+02 6.434292e+01 1.137309e+02
 endloop
endfacet
facet normal -1.999014e-01 -3.495772e-01 9.153334e-01
 outer loop
  vertex 5.506167e+01 4.160705e+01 1.908268e+02
  vertex 8.334230e+01 4.071763e+01 1.966633e+02
  vertex 8.385805e+01 7.008256e+01 2.079908e+02
 endloop
endfacet
facet normal -2.460884e-01 -3.055731e-01 9.198182e-01
 outer loop
  vertex 4.931325e+01 7.088686e+01 1.990159e+02
  vertex 5.506167e+01 4.160705e+01 1.908268e+02
  vertex 8.385805e+01 7.008256e+01 2.079908e+02
 endloop
endfacet
facet normal -1.539628e-01 -9.771892e-01 1.462764e-01
 outer loop
  vertex 5.796521e+01 8.119298e+00 1.335673e+02
  vertex 8.287040e+01 1.296100e+00 1.141993e+02
  vertex 8.285628e+01 5.910368e+00 1.450097e+02
 endloop
endfacet
facet normal 6.161887e-01 2.321764e-01 7.525992e-01
 outer loop
  vertex 1.419048e+02 1.280938e+02 1.730381e+02
  vertex 1.162444e+02 1.310739e+02 1.931282e+02
  vertex 1.192140e+02 1.003214e+02 2.001839e+02
 endloop
endfacet
facet normal -1.835291e-01 -6.063362e-01 -7.737400e-01
 outer loop
  vertex 1.419048e+02 1.280938e+02 1.730381e+02
  vertex 1.192140e+02 1.003214e+02 2.001839e+02
  vertex 8.445713e+01 1.017785e+02 2.072863e+02
 endloop
endfacet
facet normal 5.893373e-01 4.480019e-01 -6.722915e-01
 outer loop
  vertex 1.290294e+01 7.014127e+01 1.438973e+02
  vertex 2.402997e+01 1.010075e+02 1.742200e+02
  vertex 5.030593e+01 1.020216e+02 1.979296e+02
 endloop
endfacet
facet normal -6.609214e-01 4.720433e-02 7.489690e-01
 outer loop
  vertex 2.365875e+01 7.092667e+01 1.763748e+02
  vertex 4.931325e+01 7.088686e+01 1.990159e+02
  vertex 5.030593e+01 1.020216e+02 1.979296e+02
 endloop
endfacet
facet normal -6.699630e-01 6.126537e-02 7.398622e-01
 outer loop
  vertex 2.402997e+01 1.010075e+02 1.742200e+02
  vertex 2.365875e+01 7.092667e+01 1.763748e+02
  vertex 5.030593e+01 1.020216e+02 1.979296e+02
 endloop
endfacet
facet normal -1.648165e-01 -7.034081e-01 6.914135e-01
 outer loop
  vertex 5.506167e+01 4.160705e+01 1.908268e+02
  vertex 8.300049e+01 1.863786e+01 1.741190e+02
  vertex 8.334230e+01 4.071763e+01 1.966633e+02
 endloop
endfacet
facet normal 4.656510e-01 -7.110674e-02 -8.821071e-01
 outer loop
  vertex 4.032696e+01 1.709766e+02 7.806330e+01
  vertex 1.762708e+01 1.221915e+02 7.001294e+01
  vertex 2.240539e+01 1.504020e+02 7.026129e+01
 endloop
endfacet
facet normal 6.752393e-03 -7.983761e-01 -6.021213e-01
 outer loop
  vertex 1.419048e+02 1.280938e+02 1.730381e+02
  vertex 8.445713e+01 1.017785e+02 2.072863e+02
  vertex 2.965770e+01 1.310464e+02 1.678642e+02
 endloop
endfacet
facet normal -8.997656e-01 2.449771e-01 3.611206e-01
 outer loop
  vertex 2.402997e+01 1.010075e+02 1.742200e+02
  vertex 2.965770e+01 1.310464e+02 1.678642e+02
  vertex 1.691964e+01 1.282142e+02 1.380475e+02
 endloop
endfacet
facet normal 9.060248e-01 -2.106956e-01 -3.670510e-01
 outer loop
  vertex 1.140381e+01 9.894907e+01 1.412312e+02
  vertex 1.691964e+01 1.282142e+02 1.380475e+02
  vertex 2.965770e+01 1.310464e+02 1.678642e+02
 endloop
endfacet
facet normal -9.174633e-01 2.096982e-01 3.380648e-01
 outer loop
  vertex 1.140381e+01 9.894907e+01 1.412312e+02
  vertex 2.402997e+01 1.010075e+02 1.742200e+02
  vertex 1.691964e+01 1.282142e+02 1.380475e+02
 endloop
endfacet
facet normal 9.112587e-01 -2.413320e-01 -3.337162e-01
 outer loop
  vertex 1.140381e+01 9.894907e+01 1.412312e+02
  vertex 2.965770e+01 1.310464e+02 1.678642e+02
  vertex 2.402997e+01 1.010075e+02 1.742200e+02
 endloop
endfacet
facet normal -8.188985e-01 -5.733609e-01 2.573832e-02
 outer loop
  vertex 2.051340e+01 4.273838e+01 1.139729e+02
  vertex 3.590635e+01 2.114016e+01 1.225863e+02
  vertex 2.148287e+01 4.268891e+01 1.437160e+02
 endloop
endfacet
facet normal -7.008350e-01 -6.638402e-01 2.610489e-01
 outer loop
  vertex 2.148287e+01 4.268891e+01 1.437160e+02
  vertex 4.920670e+01 1.996427e+01 1.603577e+02
  vertex 3.222078e+01 4.233468e+01 1.716431e+02
 endloop
endfacet
facet normal 6.092994e-01 6.558646e-01 -4.456410e-01
 outer loop
  vertex 2.051340e+01 4.273838e+01 1.139729e+02
  vertex 1.290294e+01 7.014127e+01 1.438973e+02
  vertex 8.285628e+01 5.910368e+00 1.450097e+02
 endloop
endfacet
facet normal -9.539649e-01 -2.983534e-01 3.059824e-02
 outer loop
  vertex 2.051340e+01 4.273838e+01 1.139729e+02
  vertex 2.148287e+01 4.268891e+01 1.437160e+02
  vertex 1.290294e+01 7.014127e+01 1.438973e+02
 endloop
endfacet
facet normal -9.887618e-01 8.029313e-02 -1.261072e-01
 outer loop
  vertex 1.518820e+01 9.373850e+01 7.101910e+01
  vertex 1.099298e+01 9.636685e+01 1.055858e+02
  vertex 1.762708e+01 1.221915e+02 7.001294e+01
 endloop
endfacet
facet normal -9.853714e-01 1.547234e-01 -7.144116e-02
 outer loop
  vertex 1.545593e+01 1.247281e+02 1.054525e+02
  vertex 1.762708e+01 1.221915e+02 7.001294e+01
  vertex 1.099298e+01 9.636685e+01 1.055858e+02
 endloop
endfacet
facet normal 9.943164e-01 -8.286484e-02 6.684602e-02
 outer loop
  vertex 1.545593e+01 1.247281e+02 1.054525e+02
  vertex 1.518820e+01 9.373850e+01 7.101910e+01
  vertex 1.762708e+01 1.221915e+02 7.001294e+01
 endloop
endfacet
facet normal 9.794840e-01 -1.535189e-01 1.305491e-01
 outer loop
  vertex 1.545593e+01 1.247281e+02 1.054525e+02
  vertex 1.099298e+01 9.636685e+01 1.055858e+02
  vertex 1.518820e+01 9.373850e+01 7.101910e+01
 endloop
endfacet
facet normal -6.300704e-01 -3.067356e-01 7.133895e-01
 outer loop
  vertex 4.931325e+01 7.088686e+01 1.990159e+02
  vertex 2.365875e+01 7.092667e+01 1.763748e+02
  vertex 3.222078e+01 4.233468e+01 1.716431e+02
 endloop
endfacet
facet normal -6.148681e-01 -3.220532e-01 7.198743e-01
 outer loop
  vertex 4.931325e+01 7.088686e+01 1.990159e+02
  vertex 3.222078e+01 4.233468e+01 1.716431e+02
  vertex 5.506167e+01 4.160705e+01 1.908268e+02
 endloop
endfacet
facet normal 6.051403e-01 4.307382e-01 -6.695296e-01
 outer loop
  vertex 8.300049e+01 1.863786e+01 1.741190e+02
  vertex 1.290294e+01 7.014127e+01 1.438973e+02
  vertex 8.385805e+01 7.008256e+01 2.079908e+02
 endloop
endfacet
facet normal 9.998174e-01 -1.882446e-02 3.277473e-03
 outer loop
  vertex 8.334230e+01 4.071763e+01 1.966633e+02
  vertex 8.300049e+01 1.863786e+01 1.741190e+02
  vertex 8.385805e+01 7.008256e+01 2.079908e+02
 endloop
endfacet
facet normal -7.861363e-01 2.262092e-02 -6.176391e-01
 outer loop
  vertex 1.581860e+02 6.563035e+01 1.493094e+02
  vertex 1.192140e+02 1.003214e+02 2.001839e+02
  vertex 1.612933e+02 9.527298e+01 1.464401e+02
 endloop
endfacet
facet normal 9.138752e-01 -5.688467e-02 4.019904e-01
 outer loop
  vertex 1.472507e+02 9.800359e+01 1.787506e+02
  vertex 1.581860e+02 6.563035e+01 1.493094e+02
  vertex 1.612933e+02 9.527298e+01 1.464401e+02
 endloop
endfacet
facet normal 6.066838e-01 4.258731e-01 -6.712428e-01
 outer loop
  vertex 8.385805e+01 7.008256e+01 2.079908e+02
  vertex 1.290294e+01 7.014127e+01 1.438973e+02
  vertex 5.030593e+01 1.020216e+02 1.979296e+02
 endloop
endfacet
facet normal -6.399159e-01 4.284691e-01 6.379043e-01
 outer loop
  vertex 3.908597e+01 1.587519e+02 1.587130e+02
  vertex 2.965770e+01 1.310464e+02 1.678642e+02
  vertex 5.929814e+01 1.607910e+02 1.776193e+02
 endloop
endfacet
facet normal -6.340966e-01 4.186683e-01 6.501064e-01
 outer loop
  vertex 5.361145e+01 1.327122e+02 1.901554e+02
  vertex 5.929814e+01 1.607910e+02 1.776193e+02
  vertex 2.965770e+01 1.310464e+02 1.678642e+02
 endloop
endfacet
facet normal -9.916788e-01 -5.555729e-02 -1.161316e-01
 outer loop
  vertex 1.099298e+01 9.636685e+01 1.055858e+02
  vertex 1.518820e+01 9.373850e+01 7.101910e+01
  vertex 1.635777e+01 6.707954e+01 7.378548e+01
 endloop
endfacet
facet normal 9.663415e-01 2.373539e-01 9.923324e-02
 outer loop
  vertex 1.099298e+01 9.636685e+01 1.055858e+02
  vertex 2.650458e+01 4.347452e+01 8.104463e+01
  vertex 1.518820e+01 9.373850e+01 7.101910e+01
 endloop
endfacet
facet normal 6.364792e-01 -7.259458e-01 2.605704e-01
 outer loop
  vertex 1.183524e+02 1.782837e+01 1.599078e+02
  vertex 1.323560e+02 1.807150e+01 1.263794e+02
  vertex 1.470984e+02 3.875226e+01 1.479855e+02
 endloop
endfacet
facet normal 4.859497e-01 -8.515439e-01 1.967888e-01
 outer loop
  vertex 1.086553e+02 6.685415e+00 1.356361e+02
  vertex 1.323560e+02 1.807150e+01 1.263794e+02
  vertex 1.183524e+02 1.782837e+01 1.599078e+02
 endloop
endfacet
facet normal -8.373075e-01 5.466322e-01 -1.046243e-02
 outer loop
  vertex 3.822576e+01 1.754322e+02 1.119137e+02
  vertex 2.240539e+01 1.504020e+02 7.026129e+01
  vertex 2.301650e+01 1.520375e+02 1.068021e+02
 endloop
endfacet
facet normal -7.214627e-01 6.793244e-01 -1.342013e-01
 outer loop
  vertex 3.822576e+01 1.754322e+02 1.119137e+02
  vertex 4.032696e+01 1.709766e+02 7.806330e+01
  vertex 2.240539e+01 1.504020e+02 7.026129e+01
 endloop
endfacet
facet normal 2.207416e-01 4.337853e-01 8.735579e-01
 outer loop
  vertex 8.506447e+01 1.328385e+02 2.004064e+02
  vertex 1.122472e+02 1.596522e+02 1.802225e+02
  vertex 8.564563e+01 1.612254e+02 1.861633e+02
 endloop
endfacet
facet normal 2.283956e-01 4.270443e-01 8.749106e-01
 outer loop
  vertex 8.506447e+01 1.328385e+02 2.004064e+02
  vertex 1.162444e+02 1.310739e+02 1.931282e+02
  vertex 1.122472e+02 1.596522e+02 1.802225e+02
 endloop
endfacet
facet normal -6.537611e-01 2.512208e-01 7.137819e-01
 outer loop
  vertex 2.402997e+01 1.010075e+02 1.742200e+02
  vertex 5.030593e+01 1.020216e+02 1.979296e+02
  vertex 5.361145e+01 1.327122e+02 1.901554e+02
 endloop
endfacet
facet normal -6.656649e-01 2.717642e-01 6.950068e-01
 outer loop
  vertex 2.965770e+01 1.310464e+02 1.678642e+02
  vertex 2.402997e+01 1.010075e+02 1.742200e+02
  vertex 5.361145e+01 1.327122e+02 1.901554e+02
 endloop
endfacet
facet normal 6.504403e-01 -2.719184e-01 -7.092163e-01
 outer loop
  vertex 2.965770e+01 1.310464e+02 1.678642e+02
  vertex 5.030593e+01 1.020216e+02 1.979296e+02
  vertex 2.402997e+01 1.010075e+02 1.742200e+02
 endloop
endfacet
facet normal 4.970156e-01 8.340581e-01 -2.394214e-01
 outer loop
  vertex 1.137248e+02 1.897057e+02 1.227369e+02
  vertex 1.367652e+02 1.738599e+02 1.153655e+02
  vertex 1.112169e+02 1.821209e+02 9.110799e+01
 endloop
endfacet
facet normal 8.701273e-02 9.952939e-01 -4.264871e-02
 outer loop
  vertex 1.137248e+02 1.897057e+02 1.227369e+02
  vertex 8.648880e+01 1.911470e+02 1.008055e+02
  vertex 8.641075e+01 1.925095e+02 1.324419e+02
 endloop
endfacet
facet normal 2.464588e-01 9.378211e-01 -2.444375e-01
 outer loop
  vertex 1.137248e+02 1.897057e+02 1.227369e+02
  vertex 1.112169e+02 1.821209e+02 9.110799e+01
  vertex 8.648880e+01 1.911470e+02 1.008055e+02
 endloop
endfacet
facet normal -3.433779e-01 9.281718e-01 -1.434875e-01
 outer loop
  vertex 4.032696e+01 1.709766e+02 7.806330e+01
  vertex 3.822576e+01 1.754322e+02 1.119137e+02
  vertex 6.427264e+01 1.816563e+02 8.984297e+01
 endloop
endfacet
facet normal -2.262130e-01 9.314002e-01 2.851692e-01
 outer loop
  vertex 5.287069e+01 1.802212e+02 1.459710e+02
  vertex 8.641075e+01 1.925095e+02 1.324419e+02
  vertex 6.059639e+01 1.897558e+02 1.209583e+02
 endloop
endfacet
facet normal -4.373037e-01 8.563700e-01 -2.745832e-01
 outer loop
  vertex 6.059639e+01 1.897558e+02 1.209583e+02
  vertex 6.427264e+01 1.816563e+02 8.984297e+01
  vertex 3.822576e+01 1.754322e+02 1.119137e+02
 endloop
endfacet
facet normal -9.915520e-01 -5.316528e-02 -1.183132e-01
 outer loop
  vertex 1.215311e+01 6.891972e+01 1.081968e+02
  vertex 1.099298e+01 9.636685e+01 1.055858e+02
  vertex 1.635777e+01 6.707954e+01 7.378548e+01
 endloop
endfacet
facet normal 9.095585e-01 7.728731e-02 4.083259e-01
 outer loop
  vertex 1.215311e+01 6.891972e+01 1.081968e+02
  vertex 2.650458e+01 4.347452e+01 8.104463e+01
  vertex 1.099298e+01 9.636685e+01 1.055858e+02
 endloop
endfacet
facet normal -9.258909e-01 3.649655e-01 9.760292e-02
 outer loop
  vertex 1.691964e+01 1.282142e+02 1.380475e+02
  vertex 2.728814e+01 1.556482e+02 1.338225e+02
  vertex 2.301650e+01 1.520375e+02 1.068021e+02
 endloop
endfacet
facet normal -9.638308e-01 2.661023e-01 1.482094e-02
 outer loop
  vertex 1.545593e+01 1.247281e+02 1.054525e+02
  vertex 1.691964e+01 1.282142e+02 1.380475e+02
  vertex 2.301650e+01 1.520375e+02 1.068021e+02
 endloop
endfacet
facet normal -9.360965e-01 2.714536e-01 2.236877e-01
 outer loop
  vertex 1.596041e+02 6.434292e+01 1.137309e+02
  vertex 1.584230e+02 9.031800e+01 7.726650e+01
  vertex 1.460137e+02 4.072108e+01 8.552342e+01
 endloop
endfacet
facet normal -3.826867e-01 -5.775754e-02 -9.220710e-01
 outer loop
  vertex 1.580986e+02 6.455618e+01 7.901483e+01
  vertex 1.460137e+02 4.072108e+01 8.552342e+01
  vertex 1.584230e+02 9.031800e+01 7.726650e+01
 endloop
endfacet
facet normal 8.865571e-01 -4.607741e-01 -4.127661e-02
 outer loop
  vertex 1.580986e+02 6.455618e+01 7.901483e+01
  vertex 1.596041e+02 6.434292e+01 1.137309e+02
  vertex 1.460137e+02 4.072108e+01 8.552342e+01
 endloop
endfacet
facet normal -7.305488e-01 6.280912e-01 2.679551e-01
 outer loop
  vertex 5.287069e+01 1.802212e+02 1.459710e+02
  vertex 2.728814e+01 1.556482e+02 1.338225e+02
  vertex 3.908597e+01 1.587519e+02 1.587130e+02
 endloop
endfacet
facet normal -8.429152e-01 5.344817e-01 6.183284e-02
 outer loop
  vertex 3.822576e+01 1.754322e+02 1.119137e+02
  vertex 2.301650e+01 1.520375e+02 1.068021e+02
  vertex 2.728814e+01 1.556482e+02 1.338225e+02
 endloop
endfacet
facet normal -3.110252e-02 -9.936993e-01 1.076765e-01
 outer loop
  vertex 1.545593e+01 1.247281e+02 1.054525e+02
  vertex 1.587775e+02 1.208016e+02 1.106159e+02
  vertex 1.691964e+01 1.282142e+02 1.380475e+02
 endloop
endfacet
facet normal -7.282200e-01 6.484034e-01 2.219652e-01
 outer loop
  vertex 5.287069e+01 1.802212e+02 1.459710e+02
  vertex 3.822576e+01 1.754322e+02 1.119137e+02
  vertex 2.728814e+01 1.556482e+02 1.338225e+02
 endloop
endfacet
facet normal -5.718123e-01 8.096907e-01 1.320291e-01
 outer loop
  vertex 5.287069e+01 1.802212e+02 1.459710e+02
  vertex 6.059639e+01 1.897558e+02 1.209583e+02
  vertex 3.822576e+01 1.754322e+02 1.119137e+02
 endloop
endfacet
facet normal 1.059020e-02 7.452748e-01 -6.666733e-01
 outer loop
  vertex 8.648880e+01 1.911470e+02 1.008055e+02
  vertex 1.112169e+02 1.821209e+02 9.110799e+01
  vertex 6.427264e+01 1.816563e+02 8.984297e+01
 endloop
endfacet
facet normal -2.614352e-01 9.261154e-01 -2.719595e-01
 outer loop
  vertex 8.648880e+01 1.911470e+02 1.008055e+02
  vertex 6.427264e+01 1.816563e+02 8.984297e+01
  vertex 6.059639e+01 1.897558e+02 1.209583e+02
 endloop
endfacet
facet normal -8.700567e-02 9.952760e-01 -4.307728e-02
 outer loop
  vertex 8.648880e+01 1.911470e+02 1.008055e+02
  vertex 6.059639e+01 1.897558e+02 1.209583e+02
  vertex 8.641075e+01 1.925095e+02 1.324419e+02
 endloop
endfacet
facet normal 1.121599e-02 7.293503e-01 -6.840485e-01
 outer loop
  vertex 1.112169e+02 1.821209e+02 9.110799e+01
  vertex 4.032696e+01 1.709766e+02 7.806330e+01
  vertex 6.427264e+01 1.816563e+02 8.984297e+01
 endloop
endfacet
facet normal 3.847836e-02 6.468056e-01 -7.616836e-01
 outer loop
  vertex 1.112169e+02 1.821209e+02 9.110799e+01
  vertex 1.351848e+02 1.698836e+02 8.192713e+01
  vertex 4.032696e+01 1.709766e+02 7.806330e+01
 endloop
endfacet
facet normal -2.997988e-01 2.644754e-01 9.166097e-01
 outer loop
  vertex 8.506447e+01 1.328385e+02 2.004064e+02
  vertex 5.361145e+01 1.327122e+02 1.901554e+02
  vertex 5.030593e+01 1.020216e+02 1.979296e+02
 endloop
endfacet
facet normal -2.567164e-01 2.137981e-01 9.425429e-01
 outer loop
  vertex 8.506447e+01 1.328385e+02 2.004064e+02
  vertex 5.030593e+01 1.020216e+02 1.979296e+02
  vertex 8.445713e+01 1.017785e+02 2.072863e+02
 endloop
endfacet
facet normal 5.934901e-01 7.889695e-01 1.590491e-01
 outer loop
  vertex 1.204778e+02 1.792798e+02 1.492563e+02
  vertex 1.367652e+02 1.738599e+02 1.153655e+02
  vertex 1.137248e+02 1.897057e+02 1.227369e+02
 endloop
endfacet
facet normal 7.333750e-01 6.316164e-01 2.514397e-01
 outer loop
  vertex 1.204778e+02 1.792798e+02 1.492563e+02
  vertex 1.465142e+02 1.530262e+02 1.392649e+02
  vertex 1.367652e+02 1.738599e+02 1.153655e+02
 endloop
endfacet
facet normal 2.004974e-01 -6.324190e-01 -7.482293e-01
 outer loop
  vertex 8.445713e+01 1.017785e+02 2.072863e+02
  vertex 5.030593e+01 1.020216e+02 1.979296e+02
  vertex 2.965770e+01 1.310464e+02 1.678642e+02
 endloop
endfacet
facet normal 2.061001e-01 9.274160e-01 3.121255e-01
 outer loop
  vertex 1.137248e+02 1.897057e+02 1.227369e+02
  vertex 8.641075e+01 1.925095e+02 1.324419e+02
  vertex 1.204778e+02 1.792798e+02 1.492563e+02
 endloop
endfacet
facet normal 2.739674e-01 7.777210e-01 5.657666e-01
 outer loop
  vertex 1.122472e+02 1.596522e+02 1.802225e+02
  vertex 1.204778e+02 1.792798e+02 1.492563e+02
  vertex 8.611430e+01 1.819502e+02 1.622256e+02
 endloop
endfacet
facet normal 5.229995e-01 6.501833e-01 5.511200e-01
 outer loop
  vertex 1.122472e+02 1.596522e+02 1.802225e+02
  vertex 1.337394e+02 1.567072e+02 1.633013e+02
  vertex 1.204778e+02 1.792798e+02 1.492563e+02
 endloop
endfacet
facet normal -2.862741e-02 -9.989786e-01 3.496084e-02
 outer loop
  vertex 1.587775e+02 1.208016e+02 1.106159e+02
  vertex 1.545593e+01 1.247281e+02 1.054525e+02
  vertex 1.566980e+02 1.196549e+02 7.614481e+01
 endloop
endfacet
facet normal 4.093484e-02 -1.013515e-01 -9.940082e-01
 outer loop
  vertex 1.518820e+01 9.373850e+01 7.101910e+01
  vertex 1.584230e+02 9.031800e+01 7.726650e+01
  vertex 1.635777e+01 6.707954e+01 7.378548e+01
 endloop
endfacet
facet normal 6.719546e-02 -2.667749e-01 -9.614135e-01
 outer loop
  vertex 2.650458e+01 4.347452e+01 8.104463e+01
  vertex 1.635777e+01 6.707954e+01 7.378548e+01
  vertex 1.584230e+02 9.031800e+01 7.726650e+01
 endloop
endfacet
facet normal -3.834394e-02 1.871513e-01 9.815825e-01
 outer loop
  vertex 2.650458e+01 4.347452e+01 8.104463e+01
  vertex 1.584230e+02 9.031800e+01 7.726650e+01
  vertex 1.518820e+01 9.373850e+01 7.101910e+01
 endloop
endfacet
facet normal 8.620508e-01 4.998045e-01 8.404679e-02
 outer loop
  vertex 1.515209e+02 1.490544e+02 1.115310e+02
  vertex 1.367652e+02 1.738599e+02 1.153655e+02
  vertex 1.465142e+02 1.530262e+02 1.392649e+02
 endloop
endfacet
facet normal 9.685877e-01 2.486343e-01 4.349344e-03
 outer loop
  vertex 1.587775e+02 1.208016e+02 1.106159e+02
  vertex 1.520108e+02 1.477619e+02 7.632953e+01
  vertex 1.515209e+02 1.490544e+02 1.115310e+02
 endloop
endfacet
facet normal 9.842333e-01 1.645581e-01 -6.484971e-02
 outer loop
  vertex 1.566980e+02 1.196549e+02 7.614481e+01
  vertex 1.520108e+02 1.477619e+02 7.632953e+01
  vertex 1.587775e+02 1.208016e+02 1.106159e+02
 endloop
endfacet
facet normal -2.805934e-01 4.350287e-01 8.555802e-01
 outer loop
  vertex 8.564563e+01 1.612254e+02 1.861633e+02
  vertex 5.361145e+01 1.327122e+02 1.901554e+02
  vertex 8.506447e+01 1.328385e+02 2.004064e+02
 endloop
endfacet
facet normal 4.121130e-01 9.022704e-01 -1.267713e-01
 outer loop
  vertex 1.112169e+02 1.821209e+02 9.110799e+01
  vertex 1.367652e+02 1.738599e+02 1.153655e+02
  vertex 1.351848e+02 1.698836e+02 8.192713e+01
 endloop
endfacet
facet normal 7.774087e-01 6.192352e-01 -1.103789e-01
 outer loop
  vertex 1.520108e+02 1.477619e+02 7.632953e+01
  vertex 1.351848e+02 1.698836e+02 8.192713e+01
  vertex 1.367652e+02 1.738599e+02 1.153655e+02
 endloop
endfacet
facet normal 8.589513e-01 5.120116e-01 -6.846689e-03
 outer loop
  vertex 1.520108e+02 1.477619e+02 7.632953e+01
  vertex 1.367652e+02 1.738599e+02 1.153655e+02
  vertex 1.515209e+02 1.490544e+02 1.115310e+02
 endloop
endfacet
facet normal 1.691098e-02 1.551268e-01 -9.877498e-01
 outer loop
  vertex 1.520108e+02 1.477619e+02 7.632953e+01
  vertex 1.762708e+01 1.221915e+02 7.001294e+01
  vertex 4.032696e+01 1.709766e+02 7.806330e+01
 endloop
endfacet
facet normal 4.429861e-02 1.395209e-02 -9.989209e-01
 outer loop
  vertex 1.520108e+02 1.477619e+02 7.632953e+01
  vertex 1.566980e+02 1.196549e+02 7.614481e+01
  vertex 1.762708e+01 1.221915e+02 7.001294e+01
 endloop
endfacet
facet normal -2.837994e-01 4.382517e-01 8.528736e-01
 outer loop
  vertex 5.929814e+01 1.607910e+02 1.776193e+02
  vertex 5.361145e+01 1.327122e+02 1.901554e+02
  vertex 8.564563e+01 1.612254e+02 1.861633e+02
 endloop
endfacet
facet normal 1.878502e-01 7.407389e-01 6.449948e-01
 outer loop
  vertex 1.122472e+02 1.596522e+02 1.802225e+02
  vertex 8.611430e+01 1.819502e+02 1.622256e+02
  vertex 8.564563e+01 1.612254e+02 1.861633e+02
 endloop
endfacet
facet normal -2.185340e-01 7.398605e-01 6.362777e-01
 outer loop
  vertex 5.929814e+01 1.607910e+02 1.776193e+02
  vertex 8.564563e+01 1.612254e+02 1.861633e+02
  vertex 8.611430e+01 1.819502e+02 1.622256e+02
 endloop
endfacet
facet normal -5.486221e-01 6.582150e-01 5.155258e-01
 outer loop
  vertex 5.287069e+01 1.802212e+02 1.459710e+02
  vertex 3.908597e+01 1.587519e+02 1.587130e+02
  vertex 5.929814e+01 1.607910e+02 1.776193e+02
 endloop
endfacet
facet normal -3.059366e-01 7.823852e-01 5.424722e-01
 outer loop
  vertex 5.287069e+01 1.802212e+02 1.459710e+02
  vertex 5.929814e+01 1.607910e+02 1.776193e+02
  vertex 8.611430e+01 1.819502e+02 1.622256e+02
 endloop
endfacet
facet normal 8.732112e-01 2.360763e-01 4.263451e-01
 outer loop
  vertex 1.569128e+02 1.245084e+02 1.442851e+02
  vertex 1.419048e+02 1.280938e+02 1.730381e+02
  vertex 1.472507e+02 9.800359e+01 1.787506e+02
 endloop
endfacet
facet normal -8.826728e-01 -1.647028e-01 -4.401837e-01
 outer loop
  vertex 1.569128e+02 1.245084e+02 1.442851e+02
  vertex 1.612933e+02 9.527298e+01 1.464401e+02
  vertex 1.419048e+02 1.280938e+02 1.730381e+02
 endloop
endfacet
facet normal 9.096495e-01 1.644156e-01 3.814515e-01
 outer loop
  vertex 1.569128e+02 1.245084e+02 1.442851e+02
  vertex 1.472507e+02 9.800359e+01 1.787506e+02
  vertex 1.612933e+02 9.527298e+01 1.464401e+02
 endloop
endfacet
facet normal -2.069466e-01 9.227629e-01 3.250874e-01
 outer loop
  vertex 5.287069e+01 1.802212e+02 1.459710e+02
  vertex 8.611430e+01 1.819502e+02 1.622256e+02
  vertex 8.641075e+01 1.925095e+02 1.324419e+02
 endloop
endfacet
facet normal 1.960950e-01 9.236040e-01 3.293971e-01
 outer loop
  vertex 1.204778e+02 1.792798e+02 1.492563e+02
  vertex 8.641075e+01 1.925095e+02 1.324419e+02
  vertex 8.611430e+01 1.819502e+02 1.622256e+02
 endloop
endfacet
facet normal 7.322000e-01 6.138181e-01 2.951449e-01
 outer loop
  vertex 1.337394e+02 1.567072e+02 1.633013e+02
  vertex 1.465142e+02 1.530262e+02 1.392649e+02
  vertex 1.204778e+02 1.792798e+02 1.492563e+02
 endloop
endfacet
facet normal 5.921600e-01 4.058725e-01 6.961423e-01
 outer loop
  vertex 1.162444e+02 1.310739e+02 1.931282e+02
  vertex 1.419048e+02 1.280938e+02 1.730381e+02
  vertex 1.337394e+02 1.567072e+02 1.633013e+02
 endloop
endfacet
facet normal 8.400840e-01 3.752773e-01 3.916960e-01
 outer loop
  vertex 1.419048e+02 1.280938e+02 1.730381e+02
  vertex 1.569128e+02 1.245084e+02 1.442851e+02
  vertex 1.465142e+02 1.530262e+02 1.392649e+02
 endloop
endfacet
facet normal -3.110252e-02 -9.936993e-01 1.076765e-01
 outer loop
  vertex 2.965770e+01 1.310464e+02 1.678642e+02
  vertex 1.569128e+02 1.245084e+02 1.442851e+02
  vertex 1.419048e+02 1.280938e+02 1.730381e+02
 endloop
endfacet
facet normal -3.110252e-02 -9.936993e-01 1.076765e-01
 outer loop
  vertex 1.569128e+02 1.245084e+02 1.442851e+02
  vertex 1.691964e+01 1.282142e+02 1.380475e+02
  vertex 1.587775e+02 1.208016e+02 1.106159e+02
 endloop
endfacet
facet normal -4.533352e-01 8.904263e-01 -4.035147e-02
 outer loop
  vertex 8.285628e+01 5.910368e+00 1.450097e+02
  vertex 1.470984e+02 3.875226e+01 1.479855e+02
  vertex 1.495711e+02 3.869350e+01 1.189089e+02
 endloop
endfacet
facet normal 8.417631e-01 3.730117e-01 3.902527e-01
 outer loop
  vertex 1.419048e+02 1.280938e+02 1.730381e+02
  vertex 1.465142e+02 1.530262e+02 1.392649e+02
  vertex 1.337394e+02 1.567072e+02 1.633013e+02
 endloop
endfacet
facet normal 9.264128e-01 3.582128e-01 1.159436e-01
 outer loop
  vertex 1.569128e+02 1.245084e+02 1.442851e+02
  vertex 1.515209e+02 1.490544e+02 1.115310e+02
  vertex 1.465142e+02 1.530262e+02 1.392649e+02
 endloop
endfacet
facet normal 9.684320e-01 2.478820e-01 2.634444e-02
 outer loop
  vertex 1.569128e+02 1.245084e+02 1.442851e+02
  vertex 1.587775e+02 1.208016e+02 1.106159e+02
  vertex 1.515209e+02 1.490544e+02 1.115310e+02
 endloop
endfacet
facet normal 6.006703e-01 3.973178e-01 6.937822e-01
 outer loop
  vertex 1.162444e+02 1.310739e+02 1.931282e+02
  vertex 1.337394e+02 1.567072e+02 1.633013e+02
  vertex 1.122472e+02 1.596522e+02 1.802225e+02
 endloop
endfacet
facet normal -2.637307e-01 4.203197e-02 9.636802e-01
 outer loop
  vertex 8.445713e+01 1.017785e+02 2.072863e+02
  vertex 5.030593e+01 1.020216e+02 1.979296e+02
  vertex 4.931325e+01 7.088686e+01 1.990159e+02
 endloop
endfacet
facet normal 2.639754e-01 -2.641857e-02 -9.641675e-01
 outer loop
  vertex 8.445713e+01 1.017785e+02 2.072863e+02
  vertex 8.385805e+01 7.008256e+01 2.079908e+02
  vertex 5.030593e+01 1.020216e+02 1.979296e+02
 endloop
endfacet
facet normal -2.507983e-01 2.624766e-02 9.676835e-01
 outer loop
  vertex 8.445713e+01 1.017785e+02 2.072863e+02
  vertex 4.931325e+01 7.088686e+01 1.990159e+02
  vertex 8.385805e+01 7.008256e+01 2.079908e+02
 endloop
endfacet
facet normal -4.106319e-01 8.361808e-01 -3.635698e-01
 outer loop
  vertex 8.285628e+01 5.910368e+00 1.450097e+02
  vertex 8.300049e+01 1.863786e+01 1.741190e+02
  vertex 1.470984e+02 3.875226e+01 1.479855e+02
 endloop
endfacet
facet normal 1.384764e-01 -9.076721e-01 3.961763e-01
 outer loop
  vertex 8.285628e+01 5.910368e+00 1.450097e+02
  vertex 1.183524e+02 1.782837e+01 1.599078e+02
  vertex 8.300049e+01 1.863786e+01 1.741190e+02
 endloop
endfacet
facet normal 1.474596e-01 -3.582186e-01 9.219193e-01
 outer loop
  vertex 8.334230e+01 4.071763e+01 1.966633e+02
  vertex 1.125887e+02 3.980496e+01 1.916308e+02
  vertex 8.385805e+01 7.008256e+01 2.079908e+02
 endloop
endfacet
facet normal 1.671146e-01 -3.412344e-01 9.250037e-01
 outer loop
  vertex 1.166874e+02 6.879704e+01 2.015855e+02
  vertex 8.385805e+01 7.008256e+01 2.079908e+02
  vertex 1.125887e+02 3.980496e+01 1.916308e+02
 endloop
endfacet
facet normal -1.653408e-01 3.574726e-01 -9.191713e-01
 outer loop
  vertex 1.166874e+02 6.879704e+01 2.015855e+02
  vertex 8.334230e+01 4.071763e+01 1.966633e+02
  vertex 8.385805e+01 7.008256e+01 2.079908e+02
 endloop
endfacet
facet normal 7.778027e-01 -6.248833e-01 6.740803e-02
 outer loop
  vertex 1.470984e+02 3.875226e+01 1.479855e+02
  vertex 1.323560e+02 1.807150e+01 1.263794e+02
  vertex 1.495711e+02 3.869350e+01 1.189089e+02
 endloop
endfacet
facet normal -2.009000e-01 -1.797166e-02 -9.794469e-01
 outer loop
  vertex 1.192140e+02 1.003214e+02 2.001839e+02
  vertex 8.385805e+01 7.008256e+01 2.079908e+02
  vertex 8.445713e+01 1.017785e+02 2.072863e+02
 endloop
endfacet
facet normal 1.921521e-01 1.817590e-02 9.811968e-01
 outer loop
  vertex 1.166874e+02 6.879704e+01 2.015855e+02
  vertex 8.445713e+01 1.017785e+02 2.072863e+02
  vertex 8.385805e+01 7.008256e+01 2.079908e+02
 endloop
endfacet
facet normal 2.012367e-01 2.740583e-02 9.791592e-01
 outer loop
  vertex 1.166874e+02 6.879704e+01 2.015855e+02
  vertex 1.192140e+02 1.003214e+02 2.001839e+02
  vertex 8.445713e+01 1.017785e+02 2.072863e+02
 endloop
endfacet
facet normal -1.924851e-01 -2.818443e-02 -9.808951e-01
 outer loop
  vertex 1.166874e+02 6.879704e+01 2.015855e+02
  vertex 8.385805e+01 7.008256e+01 2.079908e+02
  vertex 1.192140e+02 1.003214e+02 2.001839e+02
 endloop
endfacet
facet normal 6.009187e-01 2.508410e-01 7.589305e-01
 outer loop
  vertex 1.192140e+02 1.003214e+02 2.001839e+02
  vertex 1.472507e+02 9.800359e+01 1.787506e+02
  vertex 1.419048e+02 1.280938e+02 1.730381e+02
 endloop
endfacet
facet normal -7.851261e-01 3.720039e-02 -6.182177e-01
 outer loop
  vertex 1.612933e+02 9.527298e+01 1.464401e+02
  vertex 1.192140e+02 1.003214e+02 2.001839e+02
  vertex 1.419048e+02 1.280938e+02 1.730381e+02
 endloop
endfacet
facet normal 1.361823e-02 -5.999053e-01 -7.999551e-01
 outer loop
  vertex 1.082822e+02 6.450500e+00 1.033298e+02
  vertex 5.956560e+01 7.972811e+00 1.013588e+02
  vertex 4.041956e+01 2.258625e+01 9.007394e+01
 endloop
endfacet
facet normal 2.007583e-01 -9.796290e-01 4.804698e-03
 outer loop
  vertex 1.082822e+02 6.450500e+00 1.033298e+02
  vertex 1.086553e+02 6.685415e+00 1.356361e+02
  vertex 8.287040e+01 1.296100e+00 1.141993e+02
 endloop
endfacet
facet normal 8.324771e-02 -9.855323e-01 1.476346e-01
 outer loop
  vertex 8.285628e+01 5.910368e+00 1.450097e+02
  vertex 8.287040e+01 1.296100e+00 1.141993e+02
  vertex 1.086553e+02 6.685415e+00 1.356361e+02
 endloop
endfacet
facet normal -9.856783e-03 -8.943936e-01 -4.471722e-01
 outer loop
  vertex 1.082822e+02 6.450500e+00 1.033298e+02
  vertex 8.287040e+01 1.296100e+00 1.141993e+02
  vertex 5.956560e+01 7.972811e+00 1.013588e+02
 endloop
endfacet
facet normal 5.563917e-01 -3.676146e-01 7.451763e-01
 outer loop
  vertex 1.354342e+02 3.910069e+01 1.742256e+02
  vertex 1.446329e+02 6.718201e+01 1.812105e+02
  vertex 1.125887e+02 3.980496e+01 1.916308e+02
 endloop
endfacet
facet normal 5.409971e-01 -3.405271e-01 7.690016e-01
 outer loop
  vertex 1.166874e+02 6.879704e+01 2.015855e+02
  vertex 1.125887e+02 3.980496e+01 1.916308e+02
  vertex 1.446329e+02 6.718201e+01 1.812105e+02
 endloop
endfacet
facet normal 4.110836e-01 -7.126834e-01 5.684123e-01
 outer loop
  vertex 1.354342e+02 3.910069e+01 1.742256e+02
  vertex 1.125887e+02 3.980496e+01 1.916308e+02
  vertex 1.183524e+02 1.782837e+01 1.599078e+02
 endloop
endfacet
facet normal 6.391648e-01 -7.108383e-01 2.935597e-01
 outer loop
  vertex 1.470984e+02 3.875226e+01 1.479855e+02
  vertex 1.354342e+02 3.910069e+01 1.742256e+02
  vertex 1.183524e+02 1.782837e+01 1.599078e+02
 endloop
endfacet
facet normal 6.079031e-01 1.173234e-02 7.939245e-01
 outer loop
  vertex 1.472507e+02 9.800359e+01 1.787506e+02
  vertex 1.192140e+02 1.003214e+02 2.001839e+02
  vertex 1.446329e+02 6.718201e+01 1.812105e+02
 endloop
endfacet
facet normal 9.185583e-01 -4.668877e-02 3.925186e-01
 outer loop
  vertex 1.472507e+02 9.800359e+01 1.787506e+02
  vertex 1.446329e+02 6.718201e+01 1.812105e+02
  vertex 1.581860e+02 6.563035e+01 1.493094e+02
 endloop
endfacet
facet normal 5.886738e-01 -1.124321e-02 8.082925e-01
 outer loop
  vertex 1.166874e+02 6.879704e+01 2.015855e+02
  vertex 1.446329e+02 6.718201e+01 1.812105e+02
  vertex 1.192140e+02 1.003214e+02 2.001839e+02
 endloop
endfacet
facet normal -7.817068e-01 3.496751e-02 -6.226650e-01
 outer loop
  vertex 1.581860e+02 6.563035e+01 1.493094e+02
  vertex 1.166874e+02 6.879704e+01 2.015855e+02
  vertex 1.192140e+02 1.003214e+02 2.001839e+02
 endloop
endfacet
facet normal 4.819750e-02 7.865847e-01 -6.155985e-01
 outer loop
  vertex 2.051340e+01 4.273838e+01 1.139729e+02
  vertex 1.495711e+02 3.869350e+01 1.189089e+02
  vertex 1.299579e+02 1.999806e+01 9.348512e+01
 endloop
endfacet
facet normal 4.335217e-01 -9.011418e-01 1.545650e-03
 outer loop
  vertex 1.082822e+02 6.450500e+00 1.033298e+02
  vertex 1.323560e+02 1.807150e+01 1.263794e+02
  vertex 1.086553e+02 6.685415e+00 1.356361e+02
 endloop
endfacet
facet normal 1.581085e-01 -9.198061e-01 3.591077e-01
 outer loop
  vertex 8.285628e+01 5.910368e+00 1.450097e+02
  vertex 1.086553e+02 6.685415e+00 1.356361e+02
  vertex 1.183524e+02 1.782837e+01 1.599078e+02
 endloop
endfacet
facet normal 8.477595e-01 -3.717911e-01 3.782527e-01
 outer loop
  vertex 1.581860e+02 6.563035e+01 1.493094e+02
  vertex 1.446329e+02 6.718201e+01 1.812105e+02
  vertex 1.354342e+02 3.910069e+01 1.742256e+02
 endloop
endfacet
facet normal 7.475075e-01 -6.577084e-01 -9.301755e-02
 outer loop
  vertex 1.495711e+02 3.869350e+01 1.189089e+02
  vertex 1.323560e+02 1.807150e+01 1.263794e+02
  vertex 1.299579e+02 1.999806e+01 9.348512e+01
 endloop
endfacet
facet normal 4.993243e-01 -8.620470e-01 -8.689160e-02
 outer loop
  vertex 1.082822e+02 6.450500e+00 1.033298e+02
  vertex 1.299579e+02 1.999806e+01 9.348512e+01
  vertex 1.323560e+02 1.807150e+01 1.263794e+02
 endloop
endfacet
facet normal -9.655259e-03 6.347875e-01 7.726265e-01
 outer loop
  vertex 2.051340e+01 4.273838e+01 1.139729e+02
  vertex 8.285628e+01 5.910368e+00 1.450097e+02
  vertex 1.495711e+02 3.869350e+01 1.189089e+02
 endloop
endfacet
facet normal 1.305063e-02 -6.013862e-01 -7.988519e-01
 outer loop
  vertex 1.299579e+02 1.999806e+01 9.348512e+01
  vertex 1.082822e+02 6.450500e+00 1.033298e+02
  vertex 4.041956e+01 2.258625e+01 9.007394e+01
 endloop
endfacet
facet normal 4.627778e-02 7.823348e-01 -6.211365e-01
 outer loop
  vertex 2.051340e+01 4.273838e+01 1.139729e+02
  vertex 1.299579e+02 1.999806e+01 9.348512e+01
  vertex 4.041956e+01 2.258625e+01 9.007394e+01
 endloop
endfacet
facet normal 9.882384e-01 1.387764e-01 -6.423363e-02
 outer loop
  vertex 1.587775e+02 1.208016e+02 1.106159e+02
  vertex 1.627486e+02 9.264668e+01 1.108827e+02
  vertex 1.566980e+02 1.196549e+02 7.614481e+01
 endloop
endfacet
facet normal 9.899452e-01 5.319877e-02 -1.310662e-01
 outer loop
  vertex 1.584230e+02 9.031800e+01 7.726650e+01
  vertex 1.566980e+02 1.196549e+02 7.614481e+01
  vertex 1.627486e+02 9.264668e+01 1.108827e+02
 endloop
endfacet
facet normal -9.964921e-01 -5.622503e-02 6.198524e-02
 outer loop
  vertex 1.584230e+02 9.031800e+01 7.726650e+01
  vertex 1.587775e+02 1.208016e+02 1.106159e+02
  vertex 1.566980e+02 1.196549e+02 7.614481e+01
 endloop
endfacet
facet normal -9.812096e-01 -1.371073e-01 1.357547e-01
 outer loop
  vertex 1.584230e+02 9.031800e+01 7.726650e+01
  vertex 1.627486e+02 9.264668e+01 1.108827e+02
  vertex 1.587775e+02 1.208016e+02 1.106159e+02
 endloop
endfacet
facet normal -9.855164e-01 1.214029e-01 1.184012e-01
 outer loop
  vertex 1.596041e+02 6.434292e+01 1.137309e+02
  vertex 1.627486e+02 9.264668e+01 1.108827e+02
  vertex 1.584230e+02 9.031800e+01 7.726650e+01
 endloop
endfacet
facet normal 9.917866e-01 -2.105064e-02 -1.261597e-01
 outer loop
  vertex 1.580986e+02 6.455618e+01 7.901483e+01
  vertex 1.584230e+02 9.031800e+01 7.726650e+01
  vertex 1.627486e+02 9.264668e+01 1.108827e+02
 endloop
endfacet
facet normal 9.924414e-01 -1.146594e-01 -4.374218e-02
 outer loop
  vertex 1.580986e+02 6.455618e+01 7.901483e+01
  vertex 1.627486e+02 9.264668e+01 1.108827e+02
  vertex 1.596041e+02 6.434292e+01 1.137309e+02
 endloop
endfacet
endsolid 
